<?xml version="1.0" encoding="iso-8859-1"?>
<!-- Generator: Adobe Illustrator 19.0.0, SVG Export Plug-In . SVG Version: 6.00 Build 0)  -->
<svg xmlns="http://www.w3.org/2000/svg" xmlns:xlink="http://www.w3.org/1999/xlink" version="1.1" id="Capa_1" x="0px" y="0px" viewBox="0 0 512 512" style="enable-background:new 0 0 512 512;" xml:space="preserve" width="512px" height="512px">
<g>
	<g>
		<path d="M388.725,209.198v-3.738c0-4.142-3.357-7.5-7.5-7.5s-7.5,3.358-7.5,7.5v10.501v0.162    c-0.001,0.033-0.005,0.064-0.005,0.097c0,0.033,0.004,0.064,0.005,0.097v44.306c-0.001,0.033-0.005,0.064-0.005,0.097    c0,0.033,0.004,0.064,0.005,0.097v79.643v15.442c0,4.22-0.226,8.475-0.672,12.647c-0.439,4.119,2.543,7.814,6.661,8.254    c0.272,0.029,0.54,0.043,0.806,0.043c3.785,0,7.038-2.856,7.449-6.704c0.501-4.699,0.756-9.49,0.756-14.239V340.46v-72.713    c5.936-1.058,11.404-3.888,15.758-8.243c5.615-5.615,8.708-13.085,8.708-21.034C413.19,223.867,402.615,211.696,388.725,209.198z     M393.876,248.898c-1.489,1.489-3.244,2.607-5.151,3.339v-27.523c5.527,2.13,9.466,7.485,9.466,13.757    C398.19,242.412,396.658,246.115,393.876,248.898z" fill="#FFFFFF"/>
	</g>
</g>
<g>
	<g>
		<path d="M310.241,208.521c-0.351-0.34-0.73-0.66-1.141-0.93c-0.41-0.27-0.84-0.5-1.3-0.69c-0.45-0.19-0.92-0.33-1.4-0.43    c-0.96-0.19-1.96-0.19-2.93,0c-0.479,0.1-0.95,0.24-1.4,0.43c-0.46,0.19-0.89,0.42-1.3,0.69c-0.41,0.27-0.79,0.59-1.14,0.93    c-1.39,1.4-2.2,3.329-2.2,5.309c0,1.97,0.811,3.9,2.2,5.3c0.349,0.34,0.729,0.66,1.14,0.93c0.41,0.27,0.84,0.5,1.3,0.69    c0.45,0.19,0.921,0.33,1.4,0.43c0.48,0.1,0.98,0.14,1.47,0.14s0.98-0.04,1.46-0.14c0.48-0.1,0.95-0.24,1.4-0.43    c0.46-0.19,0.89-0.42,1.3-0.69s0.79-0.59,1.141-0.93c1.399-1.4,2.199-3.33,2.199-5.3C312.44,211.85,311.64,209.92,310.241,208.521    z" fill="#FFFFFF"/>
	</g>
</g>
<g>
	<g>
		<path d="M214.421,212.36c-0.101-0.48-0.24-0.95-0.43-1.4c-0.19-0.46-0.421-0.89-0.69-1.3c-0.27-0.41-0.59-0.79-0.93-1.14    c-0.351-0.34-0.73-0.66-1.141-0.93c-0.41-0.27-0.84-0.5-1.3-0.69c-0.45-0.19-0.92-0.33-1.399-0.43c-0.971-0.19-1.961-0.19-2.931,0    c-0.479,0.1-0.95,0.24-1.41,0.43c-0.449,0.19-0.88,0.42-1.29,0.69c-0.409,0.27-0.79,0.59-1.14,0.93    c-0.34,0.35-0.66,0.73-0.93,1.14c-0.27,0.41-0.5,0.84-0.69,1.3c-0.189,0.45-0.33,0.92-0.43,1.4c-0.101,0.48-0.15,0.98-0.15,1.47    c0,0.48,0.05,0.98,0.15,1.46c0.1,0.48,0.24,0.95,0.43,1.4c0.19,0.46,0.42,0.89,0.69,1.3c0.27,0.41,0.59,0.79,0.93,1.14    c0.35,0.34,0.73,0.66,1.14,0.93c0.41,0.27,0.841,0.5,1.29,0.69c0.46,0.19,0.931,0.33,1.41,0.43c0.48,0.1,0.97,0.15,1.46,0.15    s0.99-0.05,1.471-0.15c0.479-0.1,0.949-0.24,1.399-0.43c0.46-0.19,0.89-0.42,1.3-0.69c0.41-0.27,0.79-0.59,1.141-0.93    c0.34-0.35,0.66-0.73,0.93-1.14c0.27-0.41,0.5-0.84,0.69-1.3c0.189-0.45,0.329-0.92,0.43-1.4c0.1-0.48,0.149-0.98,0.149-1.46    C214.57,213.34,214.52,212.84,214.421,212.36z" fill="#FFFFFF"/>
	</g>
</g>
<g>
	<g>
		<path d="M286,452.162h-60c-4.143,0-7.5,3.358-7.5,7.5c0,4.142,3.357,7.5,7.5,7.5h60c4.143,0,7.5-3.358,7.5-7.5    C293.5,455.52,290.143,452.162,286,452.162z" fill="#FFFFFF"/>
	</g>
</g>
<g>
	<g>
		<path d="M278.35,239.694h-44.7c-4.143,0-7.5,3.358-7.5,7.5c0,4.143,3.358,7.5,7.5,7.5h37.199v6.479    c0,3.827-1.452,7.461-4.088,10.232c-2.833,2.978-6.654,4.617-10.762,4.617c-5.982,0-11.355-3.561-13.686-9.072    c-1.613-3.816-6.02-5.601-9.829-3.985c-3.816,1.614-5.6,6.015-3.985,9.829c4.685,11.073,15.48,18.228,27.501,18.228    c8.137,0,16.02-3.382,21.629-9.278c5.302-5.573,8.221-12.879,8.221-20.571v-13.979C285.85,243.052,282.493,239.694,278.35,239.694    z" fill="#FFFFFF"/>
	</g>
</g>
<g>
	<g>
		<path d="M440.681,164.686l-56.437-40.889c-1.123-32.576-14.354-63.064-37.501-86.21C322.506,13.349,290.279,0,256,0    c-34.157,0-66.303,13.268-90.514,37.358c-23.294,23.178-36.605,53.747-37.73,86.439l-56.437,40.889    c-2.633,1.908-3.736,5.294-2.734,8.387c1.003,3.092,3.884,5.187,7.135,5.187h47.561v30.932    c-5.937,1.057-11.407,3.888-15.763,8.245c-5.615,5.615-8.708,13.084-8.708,21.034c0,14.605,10.578,26.776,24.471,29.273V355.9    c0,17.248,3.249,33.983,9.657,49.796c-4.569,11.572-6.968,24.01-6.968,36.784v62.02c0,4.142,3.357,7.5,7.5,7.5h245.06    c4.143,0,7.5-3.358,7.5-7.5v-62.02c0-26.12-10.002-50.84-28.164-69.607c-10.85-11.211-23.915-19.581-38.231-24.69v-4.158    c0-4.142-3.357-7.5-7.5-7.5s-7.5,3.358-7.5,7.5v0.098c-2.619-0.494-5.265-0.891-7.935-1.176v-16.04    c12.966-5.32,24.874-13.214,35.084-23.424c2.048-2.048,4.006-4.17,5.872-6.362v43.339c0,4.142,3.357,7.5,7.5,7.5    c4.142,0,7.5-3.358,7.5-7.5v-68.332c-0.001-0.034,0.001-0.068,0-0.102v-21.61c0-29.975-15.213-56.466-38.32-72.157h41.344h25.54    h0.005h55.056c3.251,0,6.132-2.095,7.135-5.187C444.417,169.98,443.314,166.594,440.681,164.686z M123.28,252.229    c-5.529-2.129-9.47-7.486-9.47-13.759c0-3.942,1.532-7.645,4.314-10.427c1.49-1.491,3.247-2.61,5.156-3.341V252.229z     M215.3,326.844v16.102c-2.67,0.285-5.315,0.682-7.935,1.176v-0.098c0-4.142-3.357-7.5-7.5-7.5s-7.5,3.358-7.5,7.5v4.158    c-14.317,5.109-27.382,13.479-38.231,24.69c-4.35,4.495-8.226,9.334-11.615,14.45c-2.811-10.163-4.239-20.677-4.239-31.422V178.26    h10.54v49.44C148.82,272.398,176.327,310.786,215.3,326.844z M151.343,459.537V497H140.97v-54.52    c0-22.206,8.503-43.221,23.943-59.175c7.931-8.195,17.26-14.591,27.452-18.989v52.637h-15.971c-4.143,0-7.5,3.358-7.5,7.5v20.097    l-13.981,8.599C152.694,454.514,151.343,456.932,151.343,459.537z M319.635,364.316c10.192,4.398,19.521,10.793,27.452,18.989    c15.44,15.955,23.943,36.97,23.943,59.175V497h-10.373v-37.463c0-2.605-1.352-5.023-3.57-6.388l-13.981-8.599v-20.097    c0-4.142-3.358-7.5-7.5-7.5h-15.971V364.316z M304.635,359.444v57.508H229.75c-4.143,0-7.5,3.358-7.5,7.5    c0,4.142,3.357,7.5,7.5,7.5h74.885v7.07c0,4.142,3.357,7.5,7.5,7.5s7.5-3.358,7.5-7.5v-7.07h8.471v16.789    c0,2.605,1.352,5.023,3.57,6.388l13.981,8.599v33.267H166.343v-33.267l13.981-8.599c2.219-1.365,3.57-3.783,3.57-6.388v-16.789    h8.471v7.07c0,4.142,3.357,7.5,7.5,7.5s7.5-3.358,7.5-7.5v-79.578c2.637-0.59,5.31-1.056,8.013-1.394    c1.257,21.314,18.993,38.27,40.622,38.27c10.883,0,21.103-4.233,28.769-11.912c7.121-7.108,11.273-16.392,11.854-26.358    C299.326,358.388,301.998,358.854,304.635,359.444z M230.3,355.63v-23.872c8.237,2.035,16.843,3.122,25.7,3.122    c8.775,0,17.389-1.053,25.7-3.09v23.84h0c0,6.866-2.674,13.316-7.538,18.171c-4.841,4.848-11.291,7.519-18.162,7.519    C241.829,381.32,230.3,369.795,230.3,355.63z M337.656,250.417v20.033c-4.319,8.249-9.846,15.793-16.48,22.427    c-9.775,9.775-21.359,17.084-33.994,21.616c-0.26,0.072-0.514,0.157-0.762,0.256c-9.652,3.366-19.9,5.132-30.421,5.132    c-50.828,0-92.18-41.352-92.18-92.18v-49.44H265.5C305.287,178.26,337.656,210.629,337.656,250.417z M381.225,163.26h-0.005    h-25.54H265.5H156.32h-25.54H98.854l38.756-28.08h167.722c4.143,0,7.5-3.358,7.5-7.5c0-4.142-3.357-7.5-7.5-7.5H142.976    c0.008-0.115,0.015-0.23,0.024-0.345c0.105-1.419,0.238-2.836,0.396-4.25c0.034-0.303,0.072-0.604,0.109-0.906    c0.166-1.381,0.352-2.758,0.568-4.13c0.014-0.086,0.03-0.17,0.044-0.256h33.55c4.143,0,7.5-3.358,7.5-7.5    c0-4.142-3.357-7.5-7.5-7.5h-30.06C161.809,48.897,205.103,15,256,15c30.272,0,58.732,11.788,80.137,33.193    c13.362,13.362,22.978,29.494,28.316,47.1H208.667c-4.143,0-7.5,3.358-7.5,7.5c0,4.142,3.357,7.5,7.5,7.5h159.224    c0.516,3.228,0.891,6.481,1.128,9.747c0.003,0.047,0.006,0.093,0.009,0.14h-33.695c-4.143,0-7.5,3.358-7.5,7.5    c0,4.142,3.357,7.5,7.5,7.5h39.056l38.756,28.08H381.225z" fill="#FFFFFF"/>
	</g>
</g>
<g>
</g>
<g>
</g>
<g>
</g>
<g>
</g>
<g>
</g>
<g>
</g>
<g>
</g>
<g>
</g>
<g>
</g>
<g>
</g>
<g>
</g>
<g>
</g>
<g>
</g>
<g>
</g>
<g>
</g>
</svg>
